# xmcd
#
# Track frame offsets:
#	150
#	9499
#	29920
#	44539
#	63781
#	78052
#	88277
#	99291
#	109004
#	123112
#	140514
#	152895
#	168766
#	179420
#	192974
#	214302
#	227692
#	240406
#	258284
#	272423
#
# Disc length: 3842 seconds
#
# Revision: 1
# Processed by: cddbd v1.5.2PL0 Copyright (c) Steve Scherf et al.
# Submitted via: audiograbber 1.83.01
#
DISCID=050f0014
DTITLE=Hana a Petr Ulrychovi - Pulstoleti CD2
DYEAR=2014
DGENRE=Folk
TTITLE0=Zachovejte klid
TTITLE1=Pisen sklenene bane
TTITLE2=On na me zapomina
TTITLE3=Za vodou, za horou
TTITLE4=Ideal
TTITLE5=Chtel jsem hledat cistou studanecku
TTITLE6=Zpevanka na lasku
TTITLE7=Rano, rano
TTITLE8=Erzika
TTITLE9=Az jednou cervanky
TTITLE10=Kral Jecminek
TTITLE11=Hora Rip
TTITLE12=Lucni kral
TTITLE13=Zvon
TTITLE14=Javory
TTITLE15=Jida kralu
TTITLE16=Putovali kdysi hudci
TTITLE17=Kamen
TTITLE18=Kridla
TTITLE19=Zvlastni znameni
EXTD=
EXTT0=
EXTT1=
EXTT2=
EXTT3=
EXTT4=
EXTT5=
EXTT6=
EXTT7=
EXTT8=
EXTT9=
EXTT10=
EXTT11=
EXTT12=
EXTT13=
EXTT14=
EXTT15=
EXTT16=
EXTT17=
EXTT18=
EXTT19=
PLAYORDER=
